<?xml version="1.0" encoding="UTF-8"?>
<svg version="1.2" baseProfile="tiny-ps" xmlns="http://www.w3.org/2000/svg" viewBox="0 0 512 512" width="512" height="512">
  <title>KAG</title>
  
  <!-- Deep dark background -->
  <rect x="0" y="0" width="512" height="512" fill="#030712"/>
  
  <!-- Layered circles for premium depth effect -->
  <circle cx="256" cy="256" r="248" fill="#0f172a"/>
  <circle cx="256" cy="256" r="230" fill="#1e293b"/>
  <circle cx="256" cy="256" r="210" fill="#0f172a"/>
  
  <!-- Premium green accent ring -->
  <circle cx="256" cy="256" r="244" fill="none" stroke="#4ade80" stroke-width="4"/>
  
  <!-- Stylized K - Bold modern -->
  <polygon points="85,155 115,155 115,240 175,155 212,155 140,252 218,355 180,355 115,268 115,355 85,355" fill="#ffffff"/>
  
  <!-- Stylized A - Contemporary -->
  <polygon points="235,355 275,155 295,155 335,355 305,355 295,305 275,305 265,355" fill="#ffffff"/>
  <polygon points="280,275 290,275 285,240" fill="#0f172a"/>
  
  <!-- Stylized G - Modern curved -->
  <path d="M358 255 C358 192 392 155 440 155 C468 155 490 170 502 195 L472 215 C465 200 453 188 440 188 C410 188 392 218 392 255 C392 292 410 322 440 322 C455 322 465 312 472 298 L472 270 L435 270 L435 242 L502 242 L502 315 C488 345 465 360 440 360 C392 360 358 318 358 255 Z" fill="#ffffff"/>
  
  <!-- Premium signature dot with subtle glow -->
  <circle cx="420" cy="395" r="28" fill="#4ade80" fill-opacity="0.2"/>
  <circle cx="420" cy="395" r="20" fill="#4ade80"/>
  
</svg>
  
</svg>
